<?xml version="1.0" encoding="UTF-8"?>
<!DOCTYPE svg PUBLIC "-//W3C//DTD SVG 1.1//EN" "http://www.w3.org/Graphics/SVG/1.1/DTD/svg11.dtd">
<!-- Creator: CorelDRAW 2017 -->
<svg xmlns="http://www.w3.org/2000/svg" xml:space="preserve" width="100%" height="100%" version="1.1" style="shape-rendering:geometricPrecision; text-rendering:geometricPrecision; image-rendering:optimizeQuality; fill-rule:evenodd; clip-rule:evenodd"
viewBox="0 0 27878 8536"
 xmlns:xlink="http://www.w3.org/1999/xlink">
 <defs>
  <style type="text/css">
   <![CDATA[
    .fil0 {fill:#ED3237}
    .fil1 {fill:#373435;fill-rule:nonzero}
   ]]>
  </style>
 </defs>
 <g id="Camada_x0020_1">
  <metadata id="CorelCorpID_0Corel-Layer"/>
  <g id="_2156011610096">
   <path class="fil0" d="M5496 173l82 907c-107,-13 -244,-38 -352,-45l-336 -987c208,33 410,72 606,124zm871 313c-170,-78 -341,-144 -524,-209l56 873c88,26 215,80 304,112 57,-268 107,-529 164,-777zm751 437c-139,-91 -284,-183 -429,-268l-183 748c69,39 189,100 259,146 120,-215 240,-424 353,-627zm637 536l-505 463c-51,-46 -148,-128 -205,-174l362 -603c120,104 240,209 347,313zm530 613c-82,-117 -177,-228 -271,-339l-412 359 683 -20zm-8234 1254c-57,392 -73,742 -10,1166l2468 -494c-50,-215 -61,-392 -61,-594l-2398 -78zm486 -1351l2076 601c-63,170 -114,352 -139,535l-2354 -124c95,-366 233,-705 416,-1012zm846 -999c-246,203 -467,444 -656,705l2013 620c76,-144 170,-274 271,-398l-1628 -927zm1022 -627c-259,111 -511,248 -745,411l1565 921c113,-98 227,-183 347,-261l-1167 -1071zm1079 -300l738 1090c-126,33 -246,78 -360,131l-1123 -1044c240,-78 492,-137 745,-176zm1047 -39c-234,-13 -461,-13 -688,0l673 1058 388 -33c-126,-353 -246,-692 -372,-1025zm3622 7208l-767 -1193c-82,72 -167,129 -261,181l511 1482c189,-144 360,-300 517,-470zm568 -823l-871 -855c-57,72 -114,150 -177,215l732 1149c120,-163 227,-333 316,-509zm316 -855c-38,170 -95,333 -158,503l-552 -552 211 1 19 -246 480 294zm107 -842c0,157 -13,313 -38,470l-521 -331 22 -303 537 163zm-70 -831c32,144 50,309 57,452l-500 -127 24 -334 419 9zm-214 -736c50,124 95,255 126,379l-305 -1 27 -370 152 -8zm-8291 2886c-215,-379 -349,-704 -444,-1141l2456 -595c63,215 133,372 240,568l-2252 1169zm1110 1306c-347,-281 -650,-614 -902,-973l2227 -1214c126,176 271,340 429,490l-1754 1697zm1470 862l1092 -1985c-183,-91 -353,-202 -524,-326l-1691 1717c353,242 726,437 1123,594zm1552 346c-372,-26 -745,-91 -1111,-202l1016 -1965c170,65 347,118 530,150l-435 2017zm1426 -124c-309,78 -631,124 -965,130l372 -1972c158,13 316,13 473,0l120 1841zm1161 -483c-233,144 -480,268 -738,359l-151 -1782c132,-33 259,-72 379,-117l511 1541z"/>
   <polygon class="fil1" points="5839,2320 5726,3030 5140,3030 4640,5282 3697,5282 3922,3201 4837,3050 3233,3048 3313,2320 "/>
   <path class="fil1" d="M10743 2731l-1294 0 -184 2551 1000 0 477 -2551zm768 1594l803 956 -1252 0 -580 -881 545 -717c623,-909 -581,-1159 -995,-1363l1520 -2c1544,439 889,1269 -40,2007z"/>
   <polygon class="fil1" points="8605,2321 8392,5282 7317,5282 7325,4712 6592,4712 6411,5282 5565,5282 6163,2584 7263,2584 6718,4293 7332,4293 7361,2321 "/>
   <polygon class="fil1" points="15780,2321 15567,5282 14492,5282 14501,4712 13767,4712 13586,5282 12740,5282 13338,2584 14438,2584 13893,4293 14507,4293 14536,2321 "/>
   <polygon class="fil1" points="20288,2321 20074,5282 19000,5282 19257,3134 18549,5280 17674,5280 17502,3245 17170,5282 16292,5282 16470,2584 18084,2584 18208,4517 18893,2321 "/>
   <path class="fil1" d="M22231 2731l-1295 0 -184 2551 1002 0 478 -2551zm1626 422c-83,511 -500,973 -767,1327l-1144 0c243,-297 620,-711 693,-1156 101,-618 -842,-909 -1119,-1002l1479 -2c295,79 955,238 858,833z"/>
   <path class="fil1" d="M25799 5282c384,-230 1105,-861 494,-1331 -182,-121 -674,-350 -689,-662 -3,-29 -2,-57 2,-84 16,-96 68,-211 157,-347 55,-85 125,-177 210,-275l-1232 0c-145,188 -376,440 -421,713 -7,45 -9,88 -6,128 26,448 919,742 876,1008 -59,359 -744,677 -1005,849l1614 0zm1296 -2961l-233 1052 -978 0 171 -1052 1040 0z"/>
   <path class="fil1" d="M27480 1951l0 -117 78 0c40,0 82,9 82,55 0,58 -43,62 -92,62l-68 0zm0 48l66 0 99 163 64 0 -107 -165c55,-7 97,-36 97,-104 0,-74 -44,-107 -133,-107l-143 0 0 376 57 0 0 -163zm69 300c177,0 329,-138 329,-326 0,-188 -151,-324 -329,-324 -180,0 -332,137 -332,324 0,188 152,326 332,326zm-267 -326c0,-155 117,-271 267,-271 147,0 264,116 264,271 0,157 -116,272 -264,272 -149,0 -267,-115 -267,-272z"/>
   <polygon class="fil1" points="9257,5957 10301,5957 10301,6072 9606,6072 9606,6341 10186,6341 10186,6455 9606,6455 9606,6764 10311,6764 10311,6879 9257,6879 "/>
   <polygon class="fil1" points="11194,6764 11939,6764 11939,6879 10845,6879 10845,5957 11194,5957 "/>
   <polygon class="fil1" points="12473,5957 13518,5957 13518,6072 12822,6072 12822,6341 13402,6341 13402,6455 12822,6455 12822,6764 13527,6764 13527,6879 12473,6879 "/>
   <path class="fil1" d="M15152 6828c0,6 -39,17 -119,33 -79,16 -176,24 -290,26 -266,0 -452,-40 -557,-121 -105,-81 -158,-207 -158,-379 5,-92 29,-170 71,-233 42,-63 111,-112 207,-147 96,-35 225,-53 388,-55 97,0 184,4 262,13 77,9 133,16 166,22l66 156c-29,-12 -79,-27 -153,-44 -73,-18 -162,-27 -266,-27 -143,0 -238,30 -287,90 -49,60 -73,135 -73,224 0,69 6,130 20,183 13,53 42,98 87,136 45,38 110,58 197,61 101,0 186,-6 253,-17 67,-11 120,-24 156,-39 33,-13 50,-20 50,-21l-1 0 -20 139z"/>
   <polygon class="fil1" points="16042,6072 15620,6072 15620,5957 16813,5957 16813,6072 16391,6072 16391,6879 16042,6879 "/>
   <path class="fil1" d="M18145 6469l438 409 -405 0 -472 -498 188 0c5,0 17,0 36,1 19,1 36,1 49,1 184,0 278,-48 283,-144 0,-51 -22,-91 -65,-121 -43,-30 -101,-45 -172,-45l-313 0 0 807 -349 0 0 -921 706 0c343,0 514,89 514,267 -5,73 -40,127 -104,163 -65,36 -137,60 -216,70 -60,9 -97,13 -112,13 -4,0 -6,0 -6,-1z"/>
   <path class="fil1" d="M19517 6416c6,108 25,192 57,251 32,60 108,90 227,91 88,0 153,-16 197,-48 43,-32 71,-72 82,-119 12,-47 18,-104 18,-171 0,-69 -5,-125 -15,-170 -10,-45 -36,-84 -78,-118 -42,-33 -107,-50 -193,-50 -123,0 -203,30 -239,90 -36,60 -55,142 -55,244zm287 -463c160,0 290,17 388,52 98,34 168,86 211,154 42,68 63,154 63,257 0,107 -23,195 -70,264 -46,70 -119,121 -217,155 -98,34 -224,51 -378,51 -149,0 -271,-16 -366,-50 -96,-33 -166,-84 -212,-154 -45,-69 -68,-158 -68,-266 2,-154 56,-270 162,-347 106,-77 269,-115 487,-116z"/>
   <polygon class="fil1" points="21997,6618 21997,5959 22248,5959 22248,6881 21839,6881 21279,6181 21279,6879 21031,6879 21031,5957 21463,5957 "/>
   <polygon class="fil1" points="23344,6879 22995,6879 22995,5957 23344,5957 "/>
   <path class="fil1" d="M25321 6828c0,6 -40,17 -119,33 -79,16 -176,24 -290,26 -266,0 -451,-40 -557,-121 -105,-81 -158,-207 -158,-379 5,-92 29,-170 71,-233 42,-63 111,-112 207,-147 96,-35 225,-53 388,-55 97,0 184,4 262,13 78,9 133,16 166,22l66 156c-29,-12 -79,-27 -153,-44 -73,-18 -162,-27 -265,-27 -143,0 -238,30 -287,90 -49,60 -73,135 -73,224 0,69 7,130 20,183 13,53 42,98 87,136 45,38 110,58 197,61 101,0 186,-6 253,-17 68,-11 120,-24 156,-39 33,-13 50,-20 50,-21l-1 0 -20 139z"/>
   <path class="fil1" d="M26280 6183c0,35 49,62 145,79 97,18 194,34 293,49 98,15 185,41 258,78 74,37 112,94 115,171 0,76 -21,137 -64,183 -42,46 -102,80 -178,102 -76,21 -169,34 -279,39 -26,1 -63,2 -112,2 -80,0 -155,-4 -226,-11 -71,-7 -130,-15 -176,-23 -46,-8 -69,-14 -69,-15l-60 -140c1,0 24,6 72,18 47,12 104,24 170,34 66,10 140,16 220,17 130,0 217,-13 262,-38 45,-25 67,-63 67,-115 0,-61 -30,-101 -91,-120 -60,-19 -159,-37 -296,-55 -136,-18 -239,-43 -308,-76 -69,-33 -103,-92 -103,-176 3,-53 28,-98 75,-132 47,-35 108,-61 184,-77 76,-17 161,-27 255,-29 157,0 280,5 369,16 89,11 148,20 178,27l63 148c-86,-23 -162,-39 -229,-49 -67,-9 -147,-14 -239,-14 -90,0 -160,6 -211,19 -51,13 -79,42 -85,87z"/>
  </g>
 </g>
</svg>
