<svg xmlns="http://www.w3.org/2000/svg" display="none"><symbol id="progress-report" viewBox="0 0 363.868 363.868"><path d="M92.723 274.945c-3.178 3.178-5.747 9.388-5.747 13.875v58.444h33.929v-92.373c0-4.487-2.569-5.56-5.747-2.382l-22.435 22.436zm149.029-55.372c-3.17 3.178-5.747 9.389-5.747 13.884v113.816h33.929V199.487c0-4.487-2.569-5.552-5.747-2.374l-22.435 22.46zm49.666-49.739c-3.178 3.17-5.755 9.38-5.755 13.867v163.563h31.547V152.212c0-4.487-2.577-5.56-5.755-2.382l-20.037 20.004zm-98.34 98.405s-1.512 1.52-3.381 3.39c-1.861 1.87-3.373 7.031-3.373 11.518v64.118h33.929v-98.047c0-4.487-2.577-5.56-5.755-2.382l-21.42 21.403zm-50.673-17.241c-3.178-3.17-5.755-2.105-5.755 2.382v93.885h33.929v-60.03c0-4.487-2.439-10.559-5.454-13.558l-5.454-5.43-17.266-17.249zm-92.382 66.671l-10.957 10.974c-3.17 3.178-5.739 8.633-5.739 12.193v6.438h37.871V304.59c0-4.487-2.569-5.552-5.747-2.374l-15.428 15.453z"/><path d="M358.121 150.724c3.17 3.178 5.747 2.105 5.747-2.382V32.193c0-8.316-7.966-15.599-16.233-15.599H232.16c-4.487 0-5.56 2.577-2.382 5.755l41.074 41.106-16.753 16.68-77.701 77.774L135.3 116.82c-3.178-3.178-8.316-3.17-11.494 0L9.519 231.189c-12.697 12.705-12.689 33.295.008 45.991l.797.805c12.697 12.697 33.287 12.697 45.975-.008l73.247-73.287 41.098 41.057c3.178 3.17 8.324 3.17 11.502 0l135.479-135.503 40.496 40.48z"/></symbol><symbol id="multiple-users-silhouette" viewBox="0 0 80.13 80.13"><path d="M48.355 17.922c3.705 2.323 6.303 6.254 6.776 10.817 1.511.706 3.188 1.112 4.966 1.112 6.491 0 11.752-5.261 11.752-11.751 0-6.491-5.261-11.752-11.752-11.752-6.429.002-11.644 5.169-11.742 11.574zm-7.699 24.062c6.491 0 11.752-5.262 11.752-11.752s-5.262-11.751-11.752-11.751c-6.49 0-11.754 5.262-11.754 11.752s5.264 11.751 11.754 11.751zm4.985.801h-9.972c-8.297 0-15.047 6.751-15.047 15.048v12.195l.031.191.84.263c7.918 2.474 14.797 3.299 20.459 3.299 11.059 0 17.469-3.153 17.864-3.354l.785-.397h.084V57.833c.003-8.297-6.747-15.048-15.044-15.048zm19.443-12.132h-9.895c-.107 3.959-1.797 7.524-4.47 10.088 7.375 2.193 12.771 9.032 12.771 17.11v3.758c9.77-.358 15.4-3.127 15.771-3.313l.785-.398h.084V45.699c0-8.296-6.75-15.046-15.046-15.046zm-45.049-.8c2.299 0 4.438-.671 6.25-1.814.576-3.757 2.59-7.04 5.467-9.276.012-.22.033-.438.033-.66 0-6.491-5.262-11.752-11.75-11.752-6.492 0-11.752 5.261-11.752 11.752 0 6.488 5.26 11.75 11.752 11.75zm10.554 10.888c-2.66-2.551-4.344-6.097-4.467-10.032-.367-.027-.73-.056-1.104-.056h-9.971C6.75 30.653 0 37.403 0 45.699v12.197l.031.188.84.265c6.352 1.983 12.021 2.897 16.945 3.185v-3.683c.002-8.078 5.396-14.915 12.773-17.11z"/></symbol><symbol id="three-buildings" viewBox="0 0 484.738 484.738"><path d="M131.012 438.372h85.624v-87.557h51.467v87.557h85.624V46.366H131.012v392.006zM257.993 92.564h51.466v51.467h-51.466V92.564zm0 82.715h51.466v51.467h-51.466v-51.467zm0 82.713h51.466v51.467h-51.466v-51.467zM175.279 92.564h51.466v51.467h-51.466V92.564zm0 82.715h51.466v51.467h-51.466v-51.467zm0 82.713h51.466v51.467h-51.466v-51.467zm198.44-176.51V358.66h33.065v79.712h77.954V81.482H373.719zm70.718 239.527H397.58v-46.856h46.856v46.856zm0-75.306H397.58v-46.855h46.856v46.855zm0-75.305H397.58v-46.855h46.856v46.855zM0 438.372h77.954V358.66h33.065V81.482H0v356.89zm40.302-314.829h46.856v46.855H40.302v-46.855zm0 75.305h46.856v46.855H40.302v-46.855zm0 75.303h46.856v46.855H40.302v-46.855z"/></symbol><symbol id="giftbox" viewBox="0 0 512 512"><path d="M478.609 99.726H441.34c4.916-7.78 8.16-16.513 9.085-25.749C453.38 44.46 437.835 18 411.37 6.269c-24.326-10.783-51.663-6.375-71.348 11.479l-47.06 42.65c-9.165-10.024-22.34-16.324-36.962-16.324-14.648 0-27.844 6.32-37.011 16.375l-47.12-42.706C152.152-.111 124.826-4.502 100.511 6.275 74.053 18.007 58.505 44.476 61.469 73.992c.927 9.229 4.169 17.958 9.084 25.734H33.391C14.949 99.726 0 114.676 0 133.117v50.087c0 9.22 7.475 16.696 16.696 16.696h478.609c9.22 0 16.696-7.475 16.696-16.696v-50.087c-.001-18.441-14.95-33.391-33.392-33.391zm-272.696-5.565v5.565H127.37c-20.752 0-37.084-19.346-31.901-40.952 2.283-9.515 9.151-17.626 18.034-21.732 12.198-5.638 25.71-3.828 35.955 5.445l56.469 51.182c-.003.165-.014.327-.014.492zm211.381-24.617c-1.244 17.353-16.919 30.184-34.316 30.184h-76.891v-5.565c0-.197-.012-.392-.014-.589 12.792-11.596 40.543-36.748 55.594-50.391 8.554-7.753 20.523-11.372 31.587-8.072 15.877 4.736 25.201 18.238 24.04 34.433zM33.391 233.291v244.87c0 18.442 14.949 33.391 33.391 33.391h155.826V233.291H33.391zm256 0v278.261h155.826c18.442 0 33.391-14.949 33.391-33.391v-244.87H289.391z"/></symbol><symbol id="qr-code" viewBox="0 0 512 512"><path d="M69.587 69.587h33.391v33.391H69.587zM339.432 0v69.589h-52.029v33.391h52.029v36.197h-52.029v33.391h121.382v50.989h33.391v-50.989H512V0H339.432zm139.177 139.177H372.823V33.391h105.786v105.786z"/><path d="M409.021 69.587h33.391v33.391h-33.391zM69.587 409.021h33.391v33.391H69.587zm339.434 0h33.391v33.391h-33.391zM172.568 69.589V0H0v172.568h69.589v50.989h33.391v-50.989h69.589V102.98h50.989V69.589h-50.99zm-33.391 69.588H33.391V33.391h105.786v105.786zm84.378 166.932h63.844V339.5h-63.844z"/><path d="M206.861 356.127v52.893h-34.293v-69.589H102.98V305.66h52.893v-33.391H69.589v67.162H0V512h172.568v-69.589h67.684v-86.284h-33.391zm-67.684 122.482H33.391V372.823h105.786v105.786zm303-139.177v-50.466h-33.391v50.466h-69.354v69.589h-68.725v86.284h33.391v-52.893h35.334V512H512V339.432h-69.823zm36.432 139.177H372.823V372.823h105.786v105.786zM206.861 155.873v50.988h-50.988v33.392h84.38v-84.38zm63.846 43.467v84.38h33.391v-50.988h50.988V199.34z"/></symbol><symbol id="box" viewBox="0 0 482 482"><path d="M279.8 244.8l-21.6 12.5V482l194.5-112.3V145zM315 43.3L240.2 0 40.3 115.4l74.9 43.3zm125 72.1l-86.2-49.1L154 181.7l11.4 5.9 74.8 43.2 74.4-42.9zM138.9 264.3l-35.8-18.4v-57.2l-73.8-42.5v223.1l193.1 111.5V257.7l-83.5-48.1z"/></symbol><symbol id="home" viewBox="0 0 460.298 460.297"><path d="M230.149 120.939L65.986 256.274c0 .191-.048.472-.144.855-.094.38-.144.656-.144.852v137.041c0 4.948 1.809 9.236 5.426 12.847 3.616 3.613 7.898 5.431 12.847 5.431h109.63V303.664h73.097v109.64h109.629c4.948 0 9.236-1.814 12.847-5.435 3.617-3.607 5.432-7.898 5.432-12.847V257.981c0-.76-.104-1.334-.288-1.707L230.149 120.939z"/><path d="M457.122 225.438L394.6 173.476V56.989c0-2.663-.856-4.853-2.574-6.567-1.704-1.712-3.894-2.568-6.563-2.568h-54.816c-2.666 0-4.855.856-6.57 2.568-1.711 1.714-2.566 3.905-2.566 6.567v55.673l-69.662-58.245c-6.084-4.949-13.318-7.423-21.694-7.423-8.375 0-15.608 2.474-21.698 7.423L3.172 225.438c-1.903 1.52-2.946 3.566-3.14 6.136-.193 2.568.472 4.811 1.997 6.713l17.701 21.128c1.525 1.712 3.521 2.759 5.996 3.142 2.285.192 4.57-.476 6.855-1.998L230.149 95.817l197.57 164.741c1.526 1.328 3.521 1.991 5.996 1.991h.858c2.471-.376 4.463-1.43 5.996-3.138l17.703-21.125c1.522-1.906 2.189-4.145 1.991-6.716-.195-2.563-1.242-4.609-3.141-6.132z"/></symbol></svg>