<svg xmlns="http://www.w3.org/2000/svg" style="display: none;"><symbol id="progress-report" viewBox="0 0 363.868 363.868"><title>progress-report</title><path style="fill:#010002;" d="M92.723,274.945c-3.178,3.178-5.747,9.388-5.747,13.875v58.444h33.929v-92.373 c0-4.487-2.569-5.56-5.747-2.382L92.723,274.945z"/><path style="fill:#010002;" d="M241.752,219.573c-3.17,3.178-5.747,9.389-5.747,13.884v113.816h33.929V199.487 c0-4.487-2.569-5.552-5.747-2.374L241.752,219.573z"/><path style="fill:#010002;" d="M291.418,169.834c-3.178,3.17-5.755,9.38-5.755,13.867v163.563h31.547V152.212 c0-4.487-2.577-5.56-5.755-2.382L291.418,169.834z"/><path style="fill:#010002;" d="M193.078,268.239c0,0-1.512,1.52-3.381,3.39c-1.861,1.87-3.373,7.031-3.373,11.518v64.118h33.929 v-98.047c0-4.487-2.577-5.56-5.755-2.382L193.078,268.239z"/><path style="fill:#010002;" d="M142.405,250.998c-3.178-3.17-5.755-2.105-5.755,2.382v93.885h33.929v-60.03 c0-4.487-2.439-10.559-5.454-13.558l-5.454-5.43L142.405,250.998z"/><path style="fill:#010002;" d="M50.023,317.669l-10.957,10.974c-3.17,3.178-5.739,8.633-5.739,12.193v6.438h37.871V304.59 c0-4.487-2.569-5.552-5.747-2.374L50.023,317.669z"/><path style="fill:#010002;" d="M358.121,150.724c3.17,3.178,5.747,2.105,5.747-2.382V32.193c0-8.316-7.966-15.599-16.233-15.599 H232.16c-4.487,0-5.56,2.577-2.382,5.755l41.074,41.106l-16.753,16.68l-77.701,77.774L135.3,116.82 c-3.178-3.178-8.316-3.17-11.494,0L9.519,231.189C-3.178,243.894-3.17,264.484,9.527,277.18l0.797,0.805 c12.697,12.697,33.287,12.697,45.975-0.008l73.247-73.287l41.098,41.057c3.178,3.17,8.324,3.17,11.502,0l135.479-135.503 L358.121,150.724z"/></symbol><symbol id="multiple-users-silhouette" viewBox="0 0 80.13 80.13"><title>multiple-users-silhouette</title><path d="M48.355,17.922c3.705,2.323,6.303,6.254,6.776,10.817c1.511,0.706,3.188,1.112,4.966,1.112 c6.491,0,11.752-5.261,11.752-11.751c0-6.491-5.261-11.752-11.752-11.752C53.668,6.35,48.453,11.517,48.355,17.922z M40.656,41.984 c6.491,0,11.752-5.262,11.752-11.752s-5.262-11.751-11.752-11.751c-6.49,0-11.754,5.262-11.754,11.752S34.166,41.984,40.656,41.984 z M45.641,42.785h-9.972c-8.297,0-15.047,6.751-15.047,15.048v12.195l0.031,0.191l0.84,0.263 c7.918,2.474,14.797,3.299,20.459,3.299c11.059,0,17.469-3.153,17.864-3.354l0.785-0.397h0.084V57.833 C60.688,49.536,53.938,42.785,45.641,42.785z M65.084,30.653h-9.895c-0.107,3.959-1.797,7.524-4.47,10.088 c7.375,2.193,12.771,9.032,12.771,17.11v3.758c9.77-0.358,15.4-3.127,15.771-3.313l0.785-0.398h0.084V45.699 C80.13,37.403,73.38,30.653,65.084,30.653z M20.035,29.853c2.299,0,4.438-0.671,6.25-1.814c0.576-3.757,2.59-7.04,5.467-9.276 c0.012-0.22,0.033-0.438,0.033-0.66c0-6.491-5.262-11.752-11.75-11.752c-6.492,0-11.752,5.261-11.752,11.752 C8.283,24.591,13.543,29.853,20.035,29.853z M30.589,40.741c-2.66-2.551-4.344-6.097-4.467-10.032 c-0.367-0.027-0.73-0.056-1.104-0.056h-9.971C6.75,30.653,0,37.403,0,45.699v12.197l0.031,0.188l0.84,0.265 c6.352,1.983,12.021,2.897,16.945,3.185v-3.683C17.818,49.773,23.212,42.936,30.589,40.741z"/></symbol><symbol id="three-buildings" viewBox="0 0 484.738 484.738"><title>three-buildings</title><path d="M131.012,438.372h85.624v-87.557h51.467v87.557h85.624V46.366H131.012V438.372z M257.993,92.564h51.466v51.467h-51.466 V92.564z M257.993,175.279h51.466v51.467h-51.466V175.279z M257.993,257.992h51.466v51.467h-51.466V257.992z M175.279,92.564 h51.466v51.467h-51.466V92.564z M175.279,175.279h51.466v51.467h-51.466V175.279z M175.279,257.992h51.466v51.467h-51.466V257.992 z"/><path d="M373.719,81.482V358.66h33.065v79.712h77.954V81.482H373.719z M444.437,321.009H397.58v-46.856h46.856V321.009z M444.437,245.703H397.58v-46.855h46.856V245.703z M444.437,170.398H397.58v-46.855h46.856V170.398z"/><path d="M0,438.372h77.954V358.66h33.065V81.482H0V438.372z M40.302,123.543h46.856v46.855H40.302V123.543z M40.302,198.848 h46.856v46.855H40.302V198.848z M40.302,274.151h46.856v46.855H40.302V274.151z"/></symbol><symbol id="giftbox" viewBox="0 0 512 512"><title>giftbox</title><g> <g> <path d="M478.609,99.726H441.34c4.916-7.78,8.16-16.513,9.085-25.749C453.38,44.46,437.835,18,411.37,6.269 c-24.326-10.783-51.663-6.375-71.348,11.479l-47.06,42.65c-9.165-10.024-22.34-16.324-36.962-16.324 c-14.648,0-27.844,6.32-37.011,16.375l-47.12-42.706C152.152-0.111,124.826-4.502,100.511,6.275 C74.053,18.007,58.505,44.476,61.469,73.992c0.927,9.229,4.169,17.958,9.084,25.734H33.391C14.949,99.726,0,114.676,0,133.117 v50.087c0,9.22,7.475,16.696,16.696,16.696h478.609c9.22,0,16.696-7.475,16.696-16.696v-50.087 C512,114.676,497.051,99.726,478.609,99.726z M205.913,94.161v5.565H127.37c-20.752,0-37.084-19.346-31.901-40.952 c2.283-9.515,9.151-17.626,18.034-21.732c12.198-5.638,25.71-3.828,35.955,5.445l56.469,51.182 C205.924,93.834,205.913,93.996,205.913,94.161z M417.294,69.544c-1.244,17.353-16.919,30.184-34.316,30.184h-76.891v-5.565 c0-0.197-0.012-0.392-0.014-0.589c12.792-11.596,40.543-36.748,55.594-50.391c8.554-7.753,20.523-11.372,31.587-8.072 C409.131,39.847,418.455,53.349,417.294,69.544z"/> </g> </g><g> <g> <path d="M33.391,233.291v244.87c0,18.442,14.949,33.391,33.391,33.391h155.826V233.291H33.391z"/> </g> </g><g> <g> <path d="M289.391,233.291v278.261h155.826c18.442,0,33.391-14.949,33.391-33.391v-244.87H289.391z"/> </g> </g></symbol><symbol id="qr-code" viewBox="0 0 512 512"><title>qr-code</title><g> <g> <rect x="69.587" y="69.587" width="33.391" height="33.391"/> </g> </g><g> <g> <path d="M339.432,0v69.589h-52.029v33.391h52.029v36.197h-52.029v33.391h52.029h15.655h53.698v50.989h33.391v-50.989H512V0 H339.432z M478.609,139.177H372.823V33.391h105.786V139.177z"/> </g> </g><g> <g> <rect x="409.021" y="69.587" width="33.391" height="33.391"/> </g> </g><g> <g> <rect x="69.587" y="409.021" width="33.391" height="33.391"/> </g> </g><g> <g> <rect x="409.021" y="409.021" width="33.391" height="33.391"/> </g> </g><g> <g> <path d="M172.568,69.589V0H0v172.568h69.589v50.989h33.391v-50.989h69.589V102.98h50.989V69.589H172.568z M139.177,139.177H33.391 V33.391h105.786V139.177z"/> </g> </g><g> <g> <rect x="223.555" y="306.109" width="63.844" height="33.391"/> </g> </g><g> <g> <path d="M206.861,356.127v52.893h-34.293v-69.589H102.98v-33.771h52.893v-33.391H69.589v67.162H0V512h172.568v-69.589h67.684 v-86.284H206.861z M139.177,478.609H33.391V372.823h105.786V478.609z"/> </g> </g><g> <g> <path d="M442.177,339.432v-50.466h-33.391v50.466h-69.354v69.589h-68.725v86.284h33.391v-52.893h35.334V512H512V339.432H442.177z M478.609,478.609H372.823V372.823h105.786V478.609z"/> </g> </g><g> <g> <polygon points="206.861,155.873 206.861,206.861 155.873,206.861 155.873,240.253 240.253,240.253 240.253,155.873 "/> </g> </g><g> <g> <polygon points="270.707,199.34 270.707,283.72 304.098,283.72 304.098,232.732 355.086,232.732 355.086,199.34 "/> </g> </g></symbol><symbol id="box" viewBox="0 0 482 482"><title>box</title><polygon points="279.8,244.8 258.2,257.3 258.2,482 452.7,369.7 452.7,145 "/><polygon points="315,43.3 240.2,0 40.3,115.4 115.2,158.7 "/><polygon points="440,115.4 353.8,66.3 154,181.7 165.4,187.6 240.2,230.8 314.6,187.9 "/><polygon points="138.9,264.3 103.1,245.9 103.1,188.7 29.3,146.2 29.3,369.3 222.4,480.8 222.4,257.7 138.9,209.6 "/></symbol><symbol id="home" viewBox="0 0 460.298 460.297"><title>home</title><path d="M230.149,120.939L65.986,256.274c0,0.191-0.048,0.472-0.144,0.855c-0.094,0.38-0.144,0.656-0.144,0.852v137.041 c0,4.948,1.809,9.236,5.426,12.847c3.616,3.613,7.898,5.431,12.847,5.431h109.63V303.664h73.097v109.64h109.629 c4.948,0,9.236-1.814,12.847-5.435c3.617-3.607,5.432-7.898,5.432-12.847V257.981c0-0.76-0.104-1.334-0.288-1.707L230.149,120.939 z"/><path d="M457.122,225.438L394.6,173.476V56.989c0-2.663-0.856-4.853-2.574-6.567c-1.704-1.712-3.894-2.568-6.563-2.568h-54.816 c-2.666,0-4.855,0.856-6.57,2.568c-1.711,1.714-2.566,3.905-2.566,6.567v55.673l-69.662-58.245 c-6.084-4.949-13.318-7.423-21.694-7.423c-8.375,0-15.608,2.474-21.698,7.423L3.172,225.438c-1.903,1.52-2.946,3.566-3.14,6.136 c-0.193,2.568,0.472,4.811,1.997,6.713l17.701,21.128c1.525,1.712,3.521,2.759,5.996,3.142c2.285,0.192,4.57-0.476,6.855-1.998 L230.149,95.817l197.57,164.741c1.526,1.328,3.521,1.991,5.996,1.991h0.858c2.471-0.376,4.463-1.43,5.996-3.138l17.703-21.125 c1.522-1.906,2.189-4.145,1.991-6.716C460.068,229.007,459.021,226.961,457.122,225.438z"/></symbol></svg>